<mxfile host="app.diagrams.net" agent="Mozilla/5.0 (Windows NT 10.0; Win64; x64) AppleWebKit/537.36 (KHTML, like Gecko) Chrome/135.0.0.0 Safari/537.36" version="26.2.14">
  <diagram name="第 1 页" id="b7EzFCHtvw0tAJPuuEse">
    <mxGraphModel dx="1665" dy="743" grid="1" gridSize="10" guides="1" tooltips="1" connect="1" arrows="1" fold="1" page="1" pageScale="1" pageWidth="827" pageHeight="1169" math="0" shadow="0">
      <root>
        <mxCell id="0" />
        <mxCell id="1" parent="0" />
        <mxCell id="Q7_bOzMSXI59BR7U50IU-14" value="" style="rounded=0;whiteSpace=wrap;html=1;" vertex="1" parent="1">
          <mxGeometry x="130" y="130" width="540" height="140" as="geometry" />
        </mxCell>
        <mxCell id="Q7_bOzMSXI59BR7U50IU-10" style="edgeStyle=orthogonalEdgeStyle;rounded=0;orthogonalLoop=1;jettySize=auto;html=1;exitX=0.5;exitY=1;exitDx=0;exitDy=0;entryX=0.5;entryY=0;entryDx=0;entryDy=0;" edge="1" parent="1" source="Q7_bOzMSXI59BR7U50IU-1" target="Q7_bOzMSXI59BR7U50IU-7">
          <mxGeometry relative="1" as="geometry" />
        </mxCell>
        <mxCell id="Q7_bOzMSXI59BR7U50IU-11" style="edgeStyle=orthogonalEdgeStyle;rounded=0;orthogonalLoop=1;jettySize=auto;html=1;exitX=0.5;exitY=1;exitDx=0;exitDy=0;entryX=0.5;entryY=0;entryDx=0;entryDy=0;" edge="1" parent="1" source="Q7_bOzMSXI59BR7U50IU-1" target="Q7_bOzMSXI59BR7U50IU-8">
          <mxGeometry relative="1" as="geometry" />
        </mxCell>
        <mxCell id="Q7_bOzMSXI59BR7U50IU-1" value="客户端" style="rounded=1;whiteSpace=wrap;html=1;" vertex="1" parent="1">
          <mxGeometry x="280" y="50" width="120" height="60" as="geometry" />
        </mxCell>
        <mxCell id="Q7_bOzMSXI59BR7U50IU-5" style="edgeStyle=orthogonalEdgeStyle;rounded=0;orthogonalLoop=1;jettySize=auto;html=1;exitX=0;exitY=0.5;exitDx=0;exitDy=0;entryX=1;entryY=0.5;entryDx=0;entryDy=0;" edge="1" parent="1" source="Q7_bOzMSXI59BR7U50IU-2" target="Q7_bOzMSXI59BR7U50IU-1">
          <mxGeometry relative="1" as="geometry" />
        </mxCell>
        <mxCell id="Q7_bOzMSXI59BR7U50IU-6" value="ip地址" style="edgeLabel;html=1;align=center;verticalAlign=middle;resizable=0;points=[];" vertex="1" connectable="0" parent="Q7_bOzMSXI59BR7U50IU-5">
          <mxGeometry x="0.0222" y="3" relative="1" as="geometry">
            <mxPoint as="offset" />
          </mxGeometry>
        </mxCell>
        <mxCell id="Q7_bOzMSXI59BR7U50IU-2" value="DNS服务" style="ellipse;whiteSpace=wrap;html=1;aspect=fixed;" vertex="1" parent="1">
          <mxGeometry x="580" y="40" width="80" height="80" as="geometry" />
        </mxCell>
        <mxCell id="Q7_bOzMSXI59BR7U50IU-3" style="edgeStyle=orthogonalEdgeStyle;rounded=0;orthogonalLoop=1;jettySize=auto;html=1;exitX=1;exitY=0.25;exitDx=0;exitDy=0;entryX=0.013;entryY=0.325;entryDx=0;entryDy=0;entryPerimeter=0;" edge="1" parent="1" source="Q7_bOzMSXI59BR7U50IU-1" target="Q7_bOzMSXI59BR7U50IU-2">
          <mxGeometry relative="1" as="geometry" />
        </mxCell>
        <mxCell id="Q7_bOzMSXI59BR7U50IU-4" value="域名" style="edgeLabel;html=1;align=center;verticalAlign=middle;resizable=0;points=[];" vertex="1" connectable="0" parent="Q7_bOzMSXI59BR7U50IU-3">
          <mxGeometry x="-0.0332" y="7" relative="1" as="geometry">
            <mxPoint as="offset" />
          </mxGeometry>
        </mxCell>
        <mxCell id="Q7_bOzMSXI59BR7U50IU-7" value="http服务" style="rounded=1;whiteSpace=wrap;html=1;" vertex="1" parent="1">
          <mxGeometry x="150" y="190" width="120" height="60" as="geometry" />
        </mxCell>
        <mxCell id="Q7_bOzMSXI59BR7U50IU-8" value="http服务" style="rounded=1;whiteSpace=wrap;html=1;" vertex="1" parent="1">
          <mxGeometry x="320" y="190" width="120" height="60" as="geometry" />
        </mxCell>
        <mxCell id="Q7_bOzMSXI59BR7U50IU-9" value="http服务" style="rounded=1;whiteSpace=wrap;html=1;" vertex="1" parent="1">
          <mxGeometry x="520" y="190" width="120" height="60" as="geometry" />
        </mxCell>
        <mxCell id="Q7_bOzMSXI59BR7U50IU-12" style="edgeStyle=orthogonalEdgeStyle;rounded=0;orthogonalLoop=1;jettySize=auto;html=1;exitX=0.5;exitY=1;exitDx=0;exitDy=0;entryX=0.667;entryY=-0.067;entryDx=0;entryDy=0;entryPerimeter=0;" edge="1" parent="1" source="Q7_bOzMSXI59BR7U50IU-1" target="Q7_bOzMSXI59BR7U50IU-9">
          <mxGeometry relative="1" as="geometry" />
        </mxCell>
        <mxCell id="Q7_bOzMSXI59BR7U50IU-16" style="edgeStyle=orthogonalEdgeStyle;rounded=0;orthogonalLoop=1;jettySize=auto;html=1;exitX=0.5;exitY=1;exitDx=0;exitDy=0;" edge="1" parent="1" source="Q7_bOzMSXI59BR7U50IU-14" target="Q7_bOzMSXI59BR7U50IU-14">
          <mxGeometry relative="1" as="geometry" />
        </mxCell>
        <mxCell id="Q7_bOzMSXI59BR7U50IU-17" value="" style="shape=singleArrow;direction=south;whiteSpace=wrap;html=1;" vertex="1" parent="1">
          <mxGeometry x="384" y="310" width="60" height="100" as="geometry" />
        </mxCell>
        <mxCell id="Q7_bOzMSXI59BR7U50IU-18" value="" style="rounded=0;whiteSpace=wrap;html=1;" vertex="1" parent="1">
          <mxGeometry x="130" y="530" width="540" height="440" as="geometry" />
        </mxCell>
        <mxCell id="Q7_bOzMSXI59BR7U50IU-34" style="edgeStyle=orthogonalEdgeStyle;rounded=0;orthogonalLoop=1;jettySize=auto;html=1;exitX=0.5;exitY=1;exitDx=0;exitDy=0;entryX=0.5;entryY=0;entryDx=0;entryDy=0;" edge="1" parent="1" source="Q7_bOzMSXI59BR7U50IU-21" target="Q7_bOzMSXI59BR7U50IU-33">
          <mxGeometry relative="1" as="geometry" />
        </mxCell>
        <mxCell id="Q7_bOzMSXI59BR7U50IU-21" value="客户端" style="rounded=1;whiteSpace=wrap;html=1;" vertex="1" parent="1">
          <mxGeometry x="310" y="440" width="120" height="60" as="geometry" />
        </mxCell>
        <mxCell id="Q7_bOzMSXI59BR7U50IU-22" style="edgeStyle=orthogonalEdgeStyle;rounded=0;orthogonalLoop=1;jettySize=auto;html=1;exitX=0;exitY=0.5;exitDx=0;exitDy=0;entryX=1;entryY=0.5;entryDx=0;entryDy=0;" edge="1" parent="1" source="Q7_bOzMSXI59BR7U50IU-24" target="Q7_bOzMSXI59BR7U50IU-21">
          <mxGeometry relative="1" as="geometry" />
        </mxCell>
        <mxCell id="Q7_bOzMSXI59BR7U50IU-23" value="ip地址" style="edgeLabel;html=1;align=center;verticalAlign=middle;resizable=0;points=[];" vertex="1" connectable="0" parent="Q7_bOzMSXI59BR7U50IU-22">
          <mxGeometry x="0.0222" y="3" relative="1" as="geometry">
            <mxPoint as="offset" />
          </mxGeometry>
        </mxCell>
        <mxCell id="Q7_bOzMSXI59BR7U50IU-24" value="DNS服务" style="ellipse;whiteSpace=wrap;html=1;aspect=fixed;" vertex="1" parent="1">
          <mxGeometry x="610" y="430" width="80" height="80" as="geometry" />
        </mxCell>
        <mxCell id="Q7_bOzMSXI59BR7U50IU-25" style="edgeStyle=orthogonalEdgeStyle;rounded=0;orthogonalLoop=1;jettySize=auto;html=1;exitX=1;exitY=0.25;exitDx=0;exitDy=0;entryX=0.013;entryY=0.325;entryDx=0;entryDy=0;entryPerimeter=0;" edge="1" parent="1" source="Q7_bOzMSXI59BR7U50IU-21" target="Q7_bOzMSXI59BR7U50IU-24">
          <mxGeometry relative="1" as="geometry" />
        </mxCell>
        <mxCell id="Q7_bOzMSXI59BR7U50IU-26" value="域名" style="edgeLabel;html=1;align=center;verticalAlign=middle;resizable=0;points=[];" vertex="1" connectable="0" parent="Q7_bOzMSXI59BR7U50IU-25">
          <mxGeometry x="-0.0332" y="7" relative="1" as="geometry">
            <mxPoint as="offset" />
          </mxGeometry>
        </mxCell>
        <mxCell id="Q7_bOzMSXI59BR7U50IU-27" value="http服务" style="rounded=1;whiteSpace=wrap;html=1;" vertex="1" parent="1">
          <mxGeometry x="160" y="800" width="120" height="60" as="geometry" />
        </mxCell>
        <mxCell id="Q7_bOzMSXI59BR7U50IU-28" value="http服务" style="rounded=1;whiteSpace=wrap;html=1;" vertex="1" parent="1">
          <mxGeometry x="310" y="800" width="120" height="60" as="geometry" />
        </mxCell>
        <mxCell id="Q7_bOzMSXI59BR7U50IU-29" value="http服务" style="rounded=1;whiteSpace=wrap;html=1;" vertex="1" parent="1">
          <mxGeometry x="500" y="800" width="120" height="60" as="geometry" />
        </mxCell>
        <mxCell id="Q7_bOzMSXI59BR7U50IU-31" style="edgeStyle=orthogonalEdgeStyle;rounded=0;orthogonalLoop=1;jettySize=auto;html=1;exitX=0.5;exitY=1;exitDx=0;exitDy=0;" edge="1" parent="1" source="Q7_bOzMSXI59BR7U50IU-18" target="Q7_bOzMSXI59BR7U50IU-18">
          <mxGeometry relative="1" as="geometry" />
        </mxCell>
        <mxCell id="Q7_bOzMSXI59BR7U50IU-35" style="edgeStyle=orthogonalEdgeStyle;rounded=0;orthogonalLoop=1;jettySize=auto;html=1;exitX=0.5;exitY=1;exitDx=0;exitDy=0;entryX=0.5;entryY=0;entryDx=0;entryDy=0;" edge="1" parent="1" source="Q7_bOzMSXI59BR7U50IU-33" target="Q7_bOzMSXI59BR7U50IU-28">
          <mxGeometry relative="1" as="geometry" />
        </mxCell>
        <mxCell id="Q7_bOzMSXI59BR7U50IU-39" style="edgeStyle=orthogonalEdgeStyle;rounded=0;orthogonalLoop=1;jettySize=auto;html=1;exitX=1;exitY=1;exitDx=0;exitDy=0;" edge="1" parent="1" source="Q7_bOzMSXI59BR7U50IU-33" target="Q7_bOzMSXI59BR7U50IU-29">
          <mxGeometry relative="1" as="geometry" />
        </mxCell>
        <mxCell id="Q7_bOzMSXI59BR7U50IU-33" value="nignx" style="ellipse;whiteSpace=wrap;html=1;" vertex="1" parent="1">
          <mxGeometry x="310" y="585" width="120" height="80" as="geometry" />
        </mxCell>
        <mxCell id="Q7_bOzMSXI59BR7U50IU-38" style="edgeStyle=orthogonalEdgeStyle;rounded=0;orthogonalLoop=1;jettySize=auto;html=1;exitX=0;exitY=1;exitDx=0;exitDy=0;entryX=0.442;entryY=0.033;entryDx=0;entryDy=0;entryPerimeter=0;" edge="1" parent="1" source="Q7_bOzMSXI59BR7U50IU-33" target="Q7_bOzMSXI59BR7U50IU-27">
          <mxGeometry relative="1" as="geometry" />
        </mxCell>
        <mxCell id="Q7_bOzMSXI59BR7U50IU-41" style="edgeStyle=orthogonalEdgeStyle;rounded=0;orthogonalLoop=1;jettySize=auto;html=1;exitX=0;exitY=0.5;exitDx=0;exitDy=0;entryX=1;entryY=0.5;entryDx=0;entryDy=0;" edge="1" parent="1" source="Q7_bOzMSXI59BR7U50IU-40" target="Q7_bOzMSXI59BR7U50IU-33">
          <mxGeometry relative="1" as="geometry" />
        </mxCell>
        <mxCell id="Q7_bOzMSXI59BR7U50IU-42" value="解决服务器实例变更" style="edgeLabel;html=1;align=center;verticalAlign=middle;resizable=0;points=[];" vertex="1" connectable="0" parent="Q7_bOzMSXI59BR7U50IU-41">
          <mxGeometry x="-0.0429" y="-4" relative="1" as="geometry">
            <mxPoint as="offset" />
          </mxGeometry>
        </mxCell>
        <mxCell id="Q7_bOzMSXI59BR7U50IU-40" value="服务发现和注册" style="ellipse;whiteSpace=wrap;html=1;aspect=fixed;" vertex="1" parent="1">
          <mxGeometry x="570" y="585" width="80" height="80" as="geometry" />
        </mxCell>
      </root>
    </mxGraphModel>
  </diagram>
</mxfile>
